<?xml version="1.0" standalone="no"?>
<!DOCTYPE svg PUBLIC "-//W3C//DTD SVG 20010904//EN"
 "http://www.w3.org/TR/2001/REC-SVG-20010904/DTD/svg10.dtd">
<svg version="1.0" xmlns="http://www.w3.org/2000/svg"
 width="1024.000000pt" height="221.000000pt" viewBox="0 0 1024.000000 221.000000"
 preserveAspectRatio="xMidYMid meet">
<metadata>
Created by potrace 1.11, written by Peter Selinger 2001-2013
</metadata>
<g transform="translate(0.000000,221.000000) scale(0.100000,-0.100000)"
fill="#000000" stroke="none">
<path d="M3600 1430 l0 -670 1195 0 1195 0 0 670 0 670 -1195 0 -1195 0 0
-670z m760 30 l0 -520 -260 0 -260 0 0 85 0 85 -90 0 -90 0 0 175 0 175 90 0
90 0 0 85 0 85 170 0 170 0 0 175 0 175 90 0 90 0 0 -520z m1220 260 l0 -90
175 0 175 0 0 -85 0 -85 -175 0 -175 0 0 -175 0 -175 175 0 175 0 0 -85 0 -85
-175 0 -175 0 0 85 0 85 -85 0 -85 0 0 350 0 350 85 0 85 0 0 -90z m-520 -175
l0 -85 85 0 85 0 0 -175 0 -175 -85 0 -85 0 0 -85 0 -85 -175 0 -175 0 0 85 0
85 -90 0 -90 0 0 175 0 175 90 0 90 0 0 85 0 85 175 0 175 0 0 -85z"/>
<path d="M3840 1285 l0 -175 170 0 170 0 0 175 0 175 -170 0 -170 0 0 -175z"/>
<path d="M4710 1285 l0 -175 175 0 175 0 0 175 0 175 -175 0 -175 0 0 -175z"/>
<path d="M50 1460 l0 -350 90 0 90 0 0 -85 0 -85 350 0 350 0 0 85 0 85 85 0
85 0 0 -85 0 -85 350 0 350 0 0 85 0 85 85 0 85 0 0 350 0 350 -85 0 -85 0 0
-350 0 -350 -350 0 -350 0 0 350 0 350 -85 0 -85 0 0 -350 0 -350 -350 0 -350
0 0 350 0 350 -90 0 -90 0 0 -350z"/>
<path d="M2320 1720 l0 -90 -85 0 -85 0 0 -260 0 -260 85 0 85 0 0 -85 0 -85
525 0 525 0 0 260 0 260 -350 0 -350 0 0 -90 0 -90 265 0 265 0 0 -85 0 -85
-440 0 -440 0 0 260 0 260 525 0 525 0 0 90 0 90 -525 0 -525 0 0 -90z"/>
<path d="M6400 1720 l0 -90 -90 0 -90 0 0 -345 0 -345 90 0 90 0 0 345 0 345
435 0 435 0 0 -345 0 -345 85 0 85 0 0 345 0 345 -85 0 -85 0 0 90 0 90 -435
0 -435 0 0 -90z"/>
<path d="M7790 1720 l0 -90 -85 0 -85 0 0 -260 0 -260 85 0 85 0 0 -85 0 -85
525 0 525 0 0 85 0 85 -525 0 -525 0 0 85 0 85 435 0 435 0 0 90 0 90 -435 0
-435 0 0 85 0 85 525 0 525 0 0 90 0 90 -525 0 -525 0 0 -90z"/>
<path d="M9010 1720 l0 -90 265 0 265 0 0 -345 0 -345 85 0 85 0 0 345 0 345
265 0 265 0 0 90 0 90 -615 0 -615 0 0 -90z"/>
<path d="M810 500 l0 -90 30 0 c30 0 30 -1 30 -55 0 -54 0 -55 30 -55 l30 0 0
-60 c0 -57 1 -60 25 -60 24 0 25 3 25 60 l0 60 30 0 c30 0 30 1 30 55 0 54 0
55 30 55 30 0 30 -1 30 -55 0 -54 0 -55 30 -55 l30 0 0 -60 0 -60 30 0 30 0 0
60 0 60 30 0 c30 0 30 1 30 55 0 52 1 55 25 55 25 0 25 1 25 90 0 89 0 90 -25
90 -25 0 -25 -1 -25 -90 l0 -90 -30 0 c-30 0 -30 -1 -30 -55 0 -54 0 -55 -30
-55 -30 0 -30 1 -30 55 0 54 0 55 -30 55 l-30 0 0 60 0 60 -30 0 -30 0 0 -60
0 -60 -30 0 c-30 0 -30 -1 -30 -55 0 -52 -1 -55 -25 -55 -24 0 -25 3 -25 55 0
54 0 55 -30 55 l-30 0 0 90 0 90 -30 0 -30 0 0 -90z"/>
<path d="M1450 560 c0 -27 -3 -30 -30 -30 l-30 0 0 -175 0 -175 30 0 30 0 0
85 0 85 85 0 85 0 0 -85 0 -85 30 0 30 0 0 175 0 175 -30 0 c-27 0 -30 3 -30
30 l0 30 -85 0 -85 0 0 -30z m170 -90 l0 -60 -85 0 -85 0 0 60 0 60 85 0 85 0
0 -60z"/>
<path d="M1740 385 l0 -205 30 0 30 0 0 85 0 85 85 0 85 0 0 -85 0 -85 30 0
30 0 0 85 0 85 -30 0 c-27 0 -30 3 -30 30 0 27 3 30 30 30 l30 0 0 60 0 60
-30 0 c-27 0 -30 3 -30 30 l0 30 -115 0 -115 0 0 -205z m230 85 l0 -60 -85 0
-85 0 0 60 0 60 85 0 85 0 0 -60z"/>
<path d="M2150 560 c0 -27 -3 -30 -30 -30 l-30 0 0 -60 0 -60 30 0 c27 0 30
-3 30 -30 l0 -30 85 0 85 0 0 -55 0 -55 -85 0 -85 0 0 30 c0 27 -3 30 -30 30
-27 0 -30 -3 -30 -30 0 -27 3 -30 30 -30 27 0 30 -3 30 -30 l0 -30 85 0 85 0
0 30 c0 27 3 30 30 30 30 0 30 1 30 55 0 54 0 55 -30 55 -27 0 -30 3 -30 30
l0 30 -85 0 -85 0 0 60 0 60 85 0 85 0 0 -30 c0 -27 3 -30 30 -30 27 0 30 3
30 30 0 27 -3 30 -30 30 -27 0 -30 3 -30 30 l0 30 -85 0 -85 0 0 -30z"/>
<path d="M2440 560 l0 -30 115 0 115 0 0 -30 c0 -27 -3 -30 -30 -30 -27 0 -30
-3 -30 -30 0 -25 -4 -30 -25 -30 -21 0 -25 -5 -25 -30 0 -27 -3 -30 -30 -30
-25 0 -30 -4 -30 -25 0 -21 -5 -25 -30 -25 l-30 0 0 -60 0 -60 145 0 145 0 0
30 0 30 -115 0 -115 0 0 30 c0 27 3 30 30 30 25 0 30 4 30 25 0 20 5 25 25 25
21 0 25 5 25 30 0 27 3 30 30 30 27 0 30 3 30 30 0 27 3 30 30 30 l30 0 0 60
0 60 -145 0 -145 0 0 -30z"/>
<path d="M2850 560 c0 -27 -3 -30 -30 -30 l-30 0 0 -175 0 -175 30 0 30 0 0
85 0 85 85 0 85 0 0 -85 0 -85 30 0 30 0 0 175 0 175 -30 0 c-27 0 -30 3 -30
30 l0 30 -85 0 -85 0 0 -30z m170 -90 l0 -60 -85 0 -85 0 0 60 0 60 85 0 85 0
0 -60z"/>
<path d="M3140 500 l0 -90 30 0 c30 0 30 -1 30 -55 0 -52 1 -55 25 -55 24 0
25 -3 25 -60 l0 -60 30 0 30 0 0 60 0 60 30 0 c30 0 30 1 30 55 0 54 0 55 30
55 30 0 30 -1 30 -55 0 -54 0 -55 30 -55 l30 0 0 -60 c0 -57 1 -60 25 -60 24
0 25 3 25 60 l0 60 30 0 c30 0 30 1 30 55 0 54 0 55 30 55 l30 0 0 90 0 90
-30 0 -30 0 0 -90 0 -90 -30 0 c-30 0 -30 -1 -30 -55 0 -52 -1 -55 -25 -55
-24 0 -25 3 -25 55 0 54 0 55 -30 55 l-30 0 0 60 0 60 -30 0 -30 0 0 -60 0
-60 -30 0 c-30 0 -30 -1 -30 -55 0 -54 0 -55 -30 -55 -30 0 -30 1 -30 55 0 52
-1 55 -25 55 -25 0 -25 1 -25 90 l0 90 -30 0 -30 0 0 -90z"/>
<path d="M3780 560 c0 -27 -3 -30 -30 -30 l-30 0 0 -60 0 -60 30 0 c27 0 30
-3 30 -30 l0 -30 85 0 85 0 0 -55 0 -55 -85 0 -85 0 0 30 c0 27 -3 30 -30 30
-27 0 -30 -3 -30 -30 0 -27 3 -30 30 -30 27 0 30 -3 30 -30 l0 -30 85 0 85 0
0 30 c0 27 3 30 30 30 30 0 30 1 30 55 0 54 0 55 -30 55 -27 0 -30 3 -30 30
l0 30 -85 0 -85 0 0 60 0 60 85 0 85 0 0 -30 c0 -27 3 -30 30 -30 27 0 30 3
30 30 0 27 -3 30 -30 30 -27 0 -30 3 -30 30 l0 30 -85 0 -85 0 0 -30z"/>
<path d="M4070 385 l0 -205 30 0 30 0 0 85 c0 84 0 85 25 85 20 0 25 -5 25
-25 0 -21 5 -25 30 -25 27 0 30 -3 30 -30 0 -27 3 -30 30 -30 27 0 30 -3 30
-30 0 -27 3 -30 30 -30 27 0 30 3 30 30 0 27 -3 30 -30 30 -27 0 -30 3 -30 30
0 27 -3 30 -30 30 -25 0 -30 4 -30 25 0 21 -5 25 -30 25 l-30 0 0 60 0 60 30
0 c27 0 30 3 30 30 0 27 3 30 30 30 27 0 30 3 30 30 0 27 -3 30 -30 30 -27 0
-30 -3 -30 -30 0 -27 -3 -30 -30 -30 -27 0 -30 -3 -30 -30 0 -25 -4 -30 -25
-30 -24 0 -25 3 -25 60 l0 60 -30 0 -30 0 0 -205z"/>
<path d="M4480 560 c0 -27 -3 -30 -30 -30 l-30 0 0 -175 0 -175 30 0 30 0 0
85 0 85 85 0 85 0 0 -85 0 -85 30 0 30 0 0 175 0 175 -30 0 c-27 0 -30 3 -30
30 l0 30 -85 0 -85 0 0 -30z m170 -90 l0 -60 -85 0 -85 0 0 60 0 60 85 0 85 0
0 -60z"/>
<path d="M5060 560 c0 -27 -3 -30 -30 -30 l-30 0 0 -145 0 -145 30 0 c27 0 30
-3 30 -30 l0 -30 85 0 85 0 0 30 c0 27 3 30 30 30 l30 0 0 85 0 85 -60 0 -60
0 0 -30 c0 -27 3 -30 30 -30 30 0 30 -1 30 -55 l0 -55 -85 0 -85 0 0 145 0
145 85 0 85 0 0 -30 c0 -27 3 -30 30 -30 27 0 30 3 30 30 0 27 -3 30 -30 30
-27 0 -30 3 -30 30 l0 30 -85 0 -85 0 0 -30z"/>
<path d="M5350 385 l0 -205 30 0 30 0 0 85 0 85 85 0 85 0 0 -85 0 -85 30 0
30 0 0 85 0 85 -30 0 c-27 0 -30 3 -30 30 0 27 3 30 30 30 l30 0 0 60 0 60
-30 0 c-27 0 -30 3 -30 30 l0 30 -115 0 -115 0 0 -205z m230 85 l0 -60 -85 0
-85 0 0 60 0 60 85 0 85 0 0 -60z"/>
<path d="M5700 415 l0 -175 30 0 c27 0 30 -3 30 -30 l0 -30 85 0 85 0 0 30 c0
27 3 30 30 30 l30 0 0 175 0 175 -30 0 -30 0 0 -175 0 -175 -85 0 -85 0 0 175
0 175 -30 0 -30 0 0 -175z"/>
<path d="M6050 385 l0 -205 25 0 c25 0 25 1 25 85 l0 85 90 0 90 0 0 30 c0 27
3 30 30 30 l30 0 0 60 0 60 -30 0 c-27 0 -30 3 -30 30 l0 30 -115 0 -115 0 0
-205z m230 85 l0 -60 -90 0 -90 0 0 60 0 60 90 0 90 0 0 -60z"/>
<path d="M6450 560 c0 -25 -4 -30 -25 -30 l-25 0 0 -175 0 -175 25 0 c25 0 25
1 25 85 l0 85 90 0 90 0 0 -85 0 -85 30 0 30 0 0 175 0 175 -30 0 c-27 0 -30
3 -30 30 l0 30 -90 0 -90 0 0 -30z m180 -90 l0 -60 -90 0 -90 0 0 60 0 60 90
0 90 0 0 -60z"/>
<path d="M7090 385 l0 -205 30 0 30 0 0 145 0 145 30 0 c27 0 30 -3 30 -30 0
-27 3 -30 30 -30 27 0 30 -3 30 -30 0 -27 3 -30 30 -30 l30 0 0 -85 c0 -84 0
-85 25 -85 l25 0 0 205 0 205 -25 0 c-25 0 -25 -1 -25 -90 l0 -90 -30 0 c-27
0 -30 3 -30 30 0 27 -3 30 -30 30 -27 0 -30 3 -30 30 0 27 -3 30 -30 30 -27 0
-30 3 -30 30 0 27 -3 30 -30 30 l-30 0 0 -205z"/>
<path d="M7440 385 l0 -205 145 0 145 0 0 30 0 30 -115 0 -115 0 0 85 0 85 60
0 60 0 0 30 0 30 -60 0 -60 0 0 30 0 30 115 0 115 0 0 30 0 30 -145 0 -145 0
0 -205z"/>
<path d="M7790 560 l0 -30 60 0 60 0 0 -175 0 -175 30 0 30 0 0 175 0 175 55
0 c54 0 55 0 55 30 l0 30 -145 0 -145 0 0 -30z"/>
</g>
</svg>
