<?xml version="1.0" encoding="UTF-8"?>
<!-- Generator: Adobe Illustrator 15.0.0, SVG Export Plug-In . SVG Version: 6.00 Build 0)  -->
<!DOCTYPE svg PUBLIC "-//W3C//DTD SVG 1.1//EN" "http://www.w3.org/Graphics/SVG/1.1/DTD/svg11.dtd">
<svg version="1.1" id="Layer_1" xmlns="http://www.w3.org/2000/svg" xmlns:xlink="http://www.w3.org/1999/xlink" x="0px" y="0px" width="340.16px" height="113.39px" viewBox="0 0 340.16 113.39" enable-background="new 0 0 340.16 113.39" xml:space="preserve">
<path fill="#0066B3" d="M79.104,64.581c1.928-14.158,3.787-28.328,5.726-42.483c-10.582,8.609-21.191,17.188-31.791,25.778  C61.724,53.447,70.426,58.997,79.104,64.581z"/>
<path fill="#0066B3" d="M57.646,73.199C47.24,62.718,36.816,52.251,26.425,41.753c-0.394,11.045-0.751,22.093-1.126,33.138  c2.24,1.018,4.465,2.071,6.712,3.077c6.204-3.852,12.444-7.646,18.658-11.484c3.914,3.859,7.799,7.746,11.741,11.569  C60.879,76.385,59.226,74.828,57.646,73.199z"/>
<path fill="#123F6D" d="M84.83,22.098c5.818,2.424,11.618,4.894,17.428,7.345c-0.971,6.855-2.055,13.697-3.063,20.551  c-1.747,11.571-3.472,23.148-5.229,34.718c-6.129,2.292-12.298,4.493-18.45,6.732c0.005-0.065,0.017-0.192,0.024-0.255  c1.166-8.872,2.372-17.739,3.564-26.607C81.032,50.423,82.892,36.253,84.83,22.098L84.83,22.098z"/>
<path fill="#D2232A" d="M57.646,73.199C47.24,62.718,36.816,52.251,26.425,41.753l-0.063-0.065l0,0  c3.048-1.673,6.077-3.374,9.116-5.065c5.848,3.76,11.707,7.502,17.562,11.254c8.685,5.571,17.387,11.121,26.065,16.705  c-1.192,8.868-2.423,17.989-3.589,26.862"/>
<g>
	<path fill="#0066B3" d="M160.165,71.825c1.303-0.022,2.618,0.053,3.907-0.16c3.301-0.322,6.635-1.514,9.019-3.889   c1.785-1.758,2.896-4.121,3.344-6.569c0.035-0.312,0.321-0.718,0.027-0.973c-1.611-0.063-3.229-0.007-4.845-0.025   c-0.65,0.021-1.305-0.052-1.95,0.037c-0.293,0.949-0.474,1.951-0.949,2.839c-0.978,1.861-2.774,3.271-4.809,3.795   c-2.317,0.662-4.83,0.542-7.113-0.201c-2.34-0.817-4.102-2.863-4.877-5.179c-0.742-1.924-0.975-3.995-1.15-6.031   c-0.044-0.362,0.37-0.266,0.599-0.293c8.431,0.005,16.862,0.001,25.291,0.001c0.413-0.076,0.161-0.657,0.26-0.951   c0.088-1.954-0.045-3.915-0.353-5.843c-0.471-2.185-1.175-4.388-2.579-6.163c0.4-0.151,0.834-0.072,1.251-0.086   c4.033,0.002,8.068,0,12.103,0.001c-0.006,7.636-0.006,15.271-0.002,22.904c-0.039,0.998,0.177,1.987,0.528,2.916   c0.903,1.962,2.789,3.49,4.941,3.811c1.849,0.13,3.72,0.052,5.533-0.343c0.187-0.039,0.456-0.145,0.45-0.374   c0.015-1.376,0.014-2.754,0-4.127c-0.159-0.29-0.517-0.12-0.771-0.125c-1.051,0.158-2.114,0.104-3.174,0.113   c-0.834-0.015-1.711-0.413-2.127-1.165c-0.512-1.051-0.363-2.25-0.384-3.38c-0.021-6.709,0.037-13.419-0.028-20.126   c0.082-0.023,0.251-0.074,0.335-0.099c2.092-0.028,4.188,0.023,6.281-0.02c0.058-1.802-0.005-3.604,0.032-5.406   c-1.988-0.104-3.986-0.018-5.978-0.044c-0.207-0.037-0.545,0.079-0.643-0.163c-0.005-1.896,0.002-3.792-0.001-5.688   c-0.015-0.521,0.09-1.054-0.039-1.566c-0.187-0.165-0.446,0.055-0.627,0.126c-1.345,0.757-2.733,1.436-4.105,2.141   c-0.303,0.101-0.213,0.46-0.231,0.703c0.025,1.481-0.033,2.966,0.039,4.447c-8.966-0.001-17.931,0.004-26.896-0.001   c-2.363,0.063-4.758,0.391-6.951,1.316c-4.084,1.548-7.316,5.083-8.648,9.227c-0.507,1.293-0.748,2.67-0.963,4.036   c-0.363,2.939-0.306,5.948,0.366,8.841c0.696,2.74,2.02,5.403,4.145,7.314c-0.087,0.029-0.256,0.089-0.343,0.119   c-3.721,0.001-7.437,0.005-11.155-0.002c-0.383-0.004-0.778,0.061-1.14-0.094c0.047-9.692,0.009-19.386,0.018-29.078   c-0.032-0.25,0.1-0.757-0.297-0.74c-1.563,0.083-3.14-0.086-4.69,0.082c-0.046,1.303,0.013,2.606-0.025,3.91   c-0.568-0.771-1.055-1.608-1.737-2.291c-0.688-0.749-1.528-1.337-2.427-1.811c-3.172-1.501-7.171-0.956-9.874,1.266   c-2.257,1.809-3.743,4.418-4.628,7.137c-1.114,3.459-1.216,7.16-0.917,10.754c0.333,3.838,1.398,7.834,4.05,10.747   c2.757,3.097,7.69,3.871,11.299,1.861c1.66-0.962,3.009-2.428,3.898-4.122c0.094-0.163,0.212-0.311,0.353-0.44   c-0.017,1.998,0,3.994-0.014,5.992c0.019,0.907-0.172,1.802-0.279,2.701c-0.307,1.718-0.762,3.573-2.096,4.801   c-1.265,1.246-3.128,1.633-4.852,1.583c-1.15,0.04-2.343-0.119-3.368-0.669c-1.438-0.723-2.182-2.346-2.332-3.882   c-0.132-0.578-0.062-1.178-0.207-1.751c-1.165,0.041-2.331,0.017-3.495,0.021c-0.541,0.009-1.092-0.063-1.616,0.095   c0.025,0.916,0.035,1.837,0.206,2.743c0.316,2.149,1.137,4.356,2.844,5.786c1.764,1.523,4.141,2.029,6.401,2.222   c1.366-0.015,2.745,0.106,4.094-0.161c2.14-0.299,4.292-1.076,5.868-2.603c1.503-1.37,2.416-3.275,2.953-5.212   c0.461-1.472,0.578-3.019,0.816-4.533C143.874,71.809,152.021,71.831,160.165,71.825z M154.722,42.946   c2.204-1.635,5.141-2.034,7.797-1.588c1.768,0.185,3.549,0.8,4.868,2.026c1.222,1.219,1.841,2.886,2.196,4.541   c0.202,0.864,0.224,1.756,0.428,2.62c-0.129,0.207-0.381,0.183-0.586,0.185c-5.759,0.003-11.517-0.001-17.274,0.003   c-0.426-0.008-0.868,0.054-1.275-0.105C151.173,47.728,152.339,44.759,154.722,42.946z M130.626,56.878   c-0.285,2.578-1.015,5.269-2.843,7.197c-2.313,2.471-6.748,2.295-8.91-0.289c-1.615-1.889-2.114-4.443-2.381-6.845   c-0.142-1.797-0.276-3.605-0.099-5.405c0.15-2.845,0.709-5.836,2.524-8.118c0.925-1.179,2.303-1.966,3.793-2.159   c1.712-0.25,3.544,0.268,4.827,1.443c1.51,1.375,2.283,3.356,2.735,5.306c0.296,1.523,0.577,3.069,0.525,4.629   C130.77,54.051,130.896,55.481,130.626,56.878z"/>
	<path fill="#0066B3" d="M214.166,72.463c1.545-0.371,2.919-1.424,3.642-2.846c1.275-2.297,0.574-5.442-1.53-7.001   c-1.194-0.915-2.763-1.321-4.247-1.098c-1.055,0.184-2.065,0.641-2.867,1.358c-2.127,1.795-2.498,5.276-0.771,7.467   C209.659,72.132,212.045,72.988,214.166,72.463z"/>
	<path fill="#0066B3" d="M228.124,44.168c-0.008,8.85,0.014,17.7-0.011,26.549c0.038,0.041,0.114,0.123,0.151,0.164   c1.592,0.053,3.185,0.003,4.776,0.012c0.131-0.581,0.025-1.183,0.05-1.77c0.006-4.974-0.004-9.948,0.006-14.921   c-0.004-2.866-0.11-5.837,0.933-8.561c0.522-1.467,1.61-2.765,3.056-3.387c1.37-0.652,2.925-0.701,4.414-0.619   c1.219,0.173,2.473,0.598,3.327,1.532c1.361,1.442,1.764,3.478,1.984,5.381c0.231,1.352,0.119,2.729,0.149,4.094   c0.003,6.392-0.002,12.785,0.003,19.178c9.321,0.007,18.643,0,27.966,0.005c1.722-0.029,3.456,0.09,5.168-0.171   c2.906-0.368,5.839-1.303,8.103-3.232c2.423-2.01,3.814-5.047,4.199-8.132c-0.17-0.051-0.338-0.081-0.509-0.086   c-1.995,0.009-3.989,0.006-5.983,0.002c-0.179,0.029-0.478-0.047-0.549,0.17c-0.214,1.698-0.964,3.365-2.219,4.554   c-1.081,1.071-2.495,1.785-3.979,2.098c-2.021,0.44-4.159,0.368-6.142-0.226c-1.623-0.451-3.042-1.516-4.037-2.861   c-1.748-2.535-2.208-5.682-2.398-8.686c0.414-0.118,0.849-0.074,1.278-0.078c4.607,0.004,9.215,0,13.823,0   c3.657-0.026,7.325,0.056,10.979-0.038c0.217-3.023,0.034-6.115-0.879-9.02c-0.434-1.421-1.166-2.726-1.966-3.967   c4.499-0.035,9.002-0.018,13.5-0.009c0.066,7.947,0.005,15.898,0.032,23.845c0.233,2.435,1.961,4.619,4.252,5.461   c1.338,0.541,2.813,0.364,4.221,0.342c0.974-0.146,1.997-0.15,2.922-0.527c0.129-0.859,0.016-1.744,0.053-2.613   c-0.04-0.64,0.123-1.307-0.104-1.923c-1.371,0.172-2.755,0.235-4.134,0.158c-0.852-0.082-1.692-0.613-1.976-1.443   c-0.319-0.716-0.233-1.516-0.245-2.276c0-6.918,0.006-13.835-0.003-20.753c-0.063-0.313,0.293-0.277,0.493-0.279   c2.023,0.018,4.051-0.03,6.076,0.026c0.184-1.572,0.021-3.168,0.086-4.749c0-0.27,0.064-0.781-0.349-0.742   c-2.104-0.013-4.209,0.031-6.313-0.023c-0.007-2.498,0.059-5.001-0.03-7.495c-0.212,0.058-0.417,0.13-0.611,0.216   c-1.416,0.801-2.894,1.487-4.324,2.26c-0.047,1.672,0,3.346-0.024,5.019c-8.739,0.062-17.479,0.007-26.215,0.025   c-1.676-0.036-3.357,0.108-4.995,0.465c-3.141,0.611-6.101,2.218-8.248,4.599c-2.008,2.15-3.243,4.92-3.872,7.77   c-0.637,3.305-0.697,6.727-0.047,10.032c0.637,2.978,2.045,5.846,4.297,7.933c-0.216,0.036-0.432,0.055-0.645,0.059   c-3.768-0.006-7.534,0-11.301-0.004c-0.196,0.042-0.446-0.074-0.412-0.301c0.016-5.331,0.002-10.661,0.007-15.992   c-0.056-1.249,0.046-2.514-0.181-3.75c-0.241-2.561-0.813-5.189-2.298-7.336c-0.665-0.9-1.481-1.708-2.471-2.245   c-1.518-0.865-3.273-1.219-5.008-1.231c-1.788-0.066-3.603,0.34-5.169,1.215c-1.265,0.718-2.342,1.742-3.198,2.911   c-0.303,0.375-0.467,0.872-0.879,1.148c0.033-1.412-0.016-2.823,0.033-4.234c-0.789-0.189-1.606-0.036-2.406-0.077   c-0.746,0.047-1.504-0.116-2.233,0.065C228.157,39.853,228.11,42.009,228.124,44.168z M267.685,46.648   c0.526-1.182,1.254-2.287,2.221-3.152c1.259-1.246,2.982-1.92,4.713-2.178c1.46-0.281,2.957-0.09,4.41,0.134   c1.8,0.337,3.656,1.093,4.751,2.63c1.449,1.871,1.716,4.304,2.019,6.569c-0.997,0.177-2.02,0.034-3.027,0.079   c-5.346,0.004-10.692-0.003-16.038,0.005C266.733,49.322,267.182,47.953,267.685,46.648z"/>
</g>
</svg>